<svg width="20" height="20" viewBox="0 0 20 20" fill="none" xmlns="http://www.w3.org/2000/svg">
<path d="M17.22 13.8662C16.0292 12.8477 14.8207 12.2308 13.6446 13.2477L12.9423 13.8623C12.4284 14.3085 11.4731 16.3931 7.77921 12.1439C4.08613 7.90004 6.28382 7.23927 6.79844 6.79696L7.50459 6.18158C8.67459 5.16235 8.23305 3.87927 7.38921 2.5585L6.87998 1.7585C6.03228 0.440809 5.10921 -0.424576 3.93613 0.593116L3.30228 1.14696C2.78382 1.52465 1.33459 2.75235 0.983053 5.08466C0.559976 7.88312 1.89459 11.0877 4.95228 14.6039C8.00613 18.1216 10.9961 19.8885 13.8284 19.8577C16.1823 19.8323 17.6038 18.5693 18.0484 18.11L18.6846 17.5554C19.8546 16.5385 19.1277 15.5031 17.9361 14.4823L17.22 13.8662Z" fill="white"/>
</svg>
